<?xml version="1.0" encoding="utf-8"?>
<!-- Generator: Adobe Illustrator 21.1.0, SVG Export Plug-In . SVG Version: 6.00 Build 0)  -->
<svg version="1.1" id="Lag_1" xmlns="http://www.w3.org/2000/svg" xmlns:xlink="http://www.w3.org/1999/xlink" x="0px" y="0px"
	 viewBox="0 0 256.5 199" style="enable-background:new 0 0 256.5 199;" xml:space="preserve">
<style type="text/css">
	.st0{fill:#FFFFFF;}
	.st1{opacity:0.4;fill:#D6B4D5;}
	.st2{opacity:0.4;fill:#B165A4;}
</style>
<g>
	<path class="st0" d="M66.3,46.5c0,1.1,0.8,1.7,1.7,1.7c1.1,0,2-0.7,2.3-1.6c0.1-0.2,0.1-0.5,0.1-0.8v-1.5
		C68.1,44.2,66.3,44.8,66.3,46.5z"/>
	<path class="st0" d="M141.3,74.3c-1.9,0-2.6,1.7-2.7,2.9h5.2C143.8,76.1,143.4,74.3,141.3,74.3z"/>
	<path class="st0" d="M51.8,81.4c0,1.1,0.8,1.7,1.7,1.7c1.1,0,2-0.7,2.3-1.6c0.1-0.2,0.1-0.5,0.1-0.8v-1.5
		C53.6,79.1,51.8,79.7,51.8,81.4z"/>
	<path class="st0" d="M177.7,74.7c-1.6,0-2.9,1.5-2.9,4c0,2.1,1,3.8,2.9,3.8c1.1,0,2-0.8,2.3-1.8c0.1-0.3,0.1-0.8,0.1-1.2v-2.1
		c0-0.3,0-0.6-0.1-0.8C179.8,75.5,179,74.7,177.7,74.7z"/>
	<path class="st0" d="M211.6,39.4c-1.9,0-2.6,1.7-2.7,2.9h5.2C214.1,41.2,213.6,39.4,211.6,39.4z"/>
	<path class="st0" d="M3.5,5.5v189h248V5.5H3.5z M140.9,45.4c-2.9-1-4.1-2.6-4-4.3c0-2.6,2.3-4.7,5.8-4.7c1.7,0,3.1,0.4,4,0.8
		l-0.8,3.1c-0.6-0.3-1.9-0.8-3.1-0.8c-1.1,0-1.7,0.4-1.7,1.2c0,0.7,0.6,1,2.3,1.6c2.7,0.9,3.8,2.3,3.9,4.4c0,2.6-2.1,4.6-6.2,4.6
		c-1.9,0-3.5-0.4-4.6-1l0.8-3.2c0.8,0.5,2.5,1.1,3.8,1.1c1.3,0,1.9-0.5,1.9-1.2S142.5,45.9,140.9,45.4z M122,36.8l0.1,2.6h0.1
		c0.7-2.1,2.5-2.9,3.8-2.9c0.4,0,0.6,0,0.9,0.1v4.2c-0.3-0.1-0.7-0.1-1.2-0.1c-1.6,0-2.7,0.9-3,2.2c-0.1,0.3-0.1,0.6-0.1,1V51h-4.4
		v-9.5c0-2.1-0.1-3.5-0.1-4.7H122z M94,31.1c2.3,0,4,0.5,4.8,0.9l-0.9,3.5c-0.9-0.4-2.2-0.7-3.7-0.7c-3.5,0-6.2,2.1-6.2,6.5
		c0,3.9,2.3,6.4,6.3,6.4c1.3,0,2.8-0.3,3.7-0.6l0.7,3.5c-0.8,0.4-2.6,0.8-5,0.8c-6.8,0-10.3-4.2-10.3-9.8
		C83.3,34.8,88.1,31.1,94,31.1z M77.2,71.6v14.2h-4.4v-11h-4.2v11h-4.4v-11h-1.9v-3.3h1.9V71c0-3.9,3.1-6.1,7.4-6.1
		c1.5,0,3.3,0.3,4.2,0.9l-0.8,3.3c-0.7-0.4-1.8-0.7-3.2-0.7c-2.3,0-3.1,1.2-3.1,2.8v0.5H77.2z M67.7,39.5c-1.5,0-3,0.5-3.9,1.1
		l-0.8-2.8c1-0.6,2.9-1.2,5.5-1.2c4.7,0,6.2,2.8,6.2,6.1v4.9c0,1.4,0.1,2.7,0.2,3.5h-4l-0.3-1.4h-0.1c-0.9,1.1-2.4,1.7-4.1,1.7
		c-2.9,0-4.6-2.1-4.6-4.4c0-3.7,3.3-5.5,8.3-5.4v-0.2C70.2,40.5,69.8,39.5,67.7,39.5z M60.4,85.9h-4l-0.3-1.4h-0.1
		c-0.9,1.1-2.4,1.7-4.1,1.7c-2.9,0-4.6-2.1-4.6-4.4c0-3.7,3.3-5.5,8.3-5.4v-0.2c0-0.8-0.4-1.8-2.6-1.8c-1.5,0-3,0.5-3.9,1.1
		l-0.8-2.8c1-0.6,2.9-1.2,5.5-1.2c4.7,0,6.2,2.8,6.2,6.1v4.9C60.2,83.8,60.2,85.1,60.4,85.9z M49.5,36.8l0.2,1.9h0.1
		c0.6-0.9,2-2.3,4.4-2.3c2.9,0,5.1,1.9,5.1,6.1V51h-4.4v-7.9c0-1.8-0.6-3.1-2.2-3.1c-1.2,0-1.9,0.8-2.2,1.7
		c-0.1,0.3-0.2,0.7-0.2,1.1V51h-4.4v-9.7c0-1.8-0.1-3.3-0.1-4.5H49.5z M40,30.6c1.4,0,2.3,1,2.4,2.2c0,1.2-0.9,2.2-2.4,2.2
		c-1.4,0-2.3-1-2.3-2.2C37.7,31.5,38.6,30.6,40,30.6z M42.2,36.8V51h-4.4V36.8H42.2z M41.3,71.6l0.1,2.6h0.1
		c0.7-2.1,2.5-2.9,3.8-2.9c0.4,0,0.6,0,0.9,0.1v4.2c-0.3-0.1-0.7-0.1-1.2-0.1c-1.6,0-2.7,0.9-3,2.2C42,78,42,78.3,42,78.6v7.2h-4.4
		v-9.5c0-2.1-0.1-3.5-0.1-4.7H41.3z M17.8,31.4H23l4.1,7.2c1.2,2.1,2.3,4.5,3.2,6.7h0.1C30.1,42.7,30,40,30,37.1v-5.7H34V51h-4.7
		l-4.2-7.6c-1.2-2.1-2.4-4.6-3.4-6.9l-0.1,0c0.1,2.6,0.2,5.3,0.2,8.5V51h-4.1V31.4z M28.1,66.1c2.5,0,4.5,0.5,5.4,1l-0.9,3.5
		c-1.1-0.5-2.4-0.8-4.6-0.8c-3.7,0-6.5,2.1-6.5,6.3c0,4,2.5,6.4,6.2,6.4c1,0,1.8-0.1,2.2-0.3v-4.1h-3v-3.5h7.3V85
		c-1.4,0.5-4,1.1-6.5,1.1c-3.6,0-6.2-0.9-8-2.6c-1.8-1.7-2.8-4.2-2.8-7.1C17,69.8,21.7,66.1,28.1,66.1z M77.5,154.5
		c-9.7,7-19.3,14-29,21c-0.3,0-0.7,0-1,0s-0.7,0-1,0c-10-7-20-14-30-21c0-14.7,0-29.4,0-44.1c0-1.3-1-3.6,2-2.9
		c9.6,7,19.3,13.9,28.9,20.9c9.7-7,19.4-13.9,29.1-20.9c0.3,1,1,2,1,3C77.5,125.2,77.5,139.8,77.5,154.5z M84.5,86.1
		c-1.9,0-3.5-0.4-4.6-1l0.8-3.2c0.8,0.5,2.5,1.1,3.8,1.1c1.3,0,1.9-0.5,1.9-1.2c0-0.7-0.4-1.1-2.1-1.6c-2.9-1-4.1-2.6-4-4.3
		c0-2.6,2.3-4.7,5.8-4.7c1.7,0,3.1,0.4,4,0.8l-0.8,3.1c-0.6-0.3-1.9-0.8-3.1-0.8c-1.1,0-1.7,0.4-1.7,1.2c0,0.7,0.6,1,2.3,1.6
		c2.7,0.9,3.8,2.3,3.9,4.4C90.7,84.2,88.6,86.1,84.5,86.1z M102.4,85.9L98.9,80l-1.1,1.4v4.4h-4.4V65.2h4.4v12.4h0.1
		c0.3-0.6,0.7-1.2,1-1.7l2.9-4.3h5.3l-5.1,5.8l5.8,8.5H102.4z M114.7,51h-4.4v-7.8c0-1.9-0.6-3.1-2.3-3.1c-1.2,0-1.9,0.8-2.2,1.5
		c-0.1,0.3-0.1,0.7-0.1,1V51h-4.4V30.3h4.4v8.1h0.1c0.5-0.6,1-1.1,1.7-1.5c0.6-0.3,1.5-0.6,2.3-0.6c2.8,0,5,1.9,5,6.2V51z
		 M129.2,83.5c-2.1,1.7-5.2,2.5-9,2.5c-2.3,0-3.9-0.1-5-0.3V66.5c1.6-0.3,3.8-0.4,6-0.4c3.7,0,6.1,0.7,8,2.1c2,1.5,3.3,3.9,3.3,7.4
		C132.5,79.3,131.1,81.9,129.2,83.5z M133.8,51h-4.4V36.8h4.4V51z M131.5,35c-1.4,0-2.3-1-2.3-2.2c0-1.3,0.9-2.2,2.3-2.2
		s2.3,1,2.4,2.2C133.9,34,133,35,131.5,35z M147.8,80.2h-9.2c0.1,1.8,1.9,2.7,4,2.7c1.5,0,2.7-0.2,3.9-0.6l0.6,3
		c-1.5,0.6-3.2,0.9-5.1,0.9c-4.8,0-7.6-2.8-7.6-7.2c0-3.6,2.2-7.6,7.2-7.6c4.6,0,6.3,3.6,6.3,7.1C147.9,79.2,147.9,79.8,147.8,80.2z
		 M148.6,36.8h1.9v-3.1l4.3-1v4.1h3.2V40h-3.2v5.1c0,1.7,0.4,2.5,1.7,2.5c0.6,0,1-0.1,1.3-0.1l0,3.3c-0.6,0.2-1.6,0.4-2.9,0.4
		c-1.4,0-2.6-0.5-3.3-1.2c-0.8-0.8-1.2-2.2-1.2-4.2V40h-1.9V36.8z M154.4,86.1c-1.9,0-3.5-0.4-4.6-1l0.8-3.2
		c0.8,0.5,2.5,1.1,3.8,1.1c1.3,0,1.9-0.5,1.9-1.2c0-0.7-0.4-1.1-2.1-1.6c-2.9-1-4.1-2.6-4-4.3c0-2.6,2.3-4.7,5.8-4.7
		c1.7,0,3.1,0.4,4,0.8l-0.8,3.1c-0.6-0.3-1.9-0.8-3.1-0.8c-1.1,0-1.7,0.4-1.7,1.2c0,0.7,0.6,1,2.3,1.6c2.7,0.9,3.8,2.3,3.9,4.4
		C160.5,84.2,158.4,86.1,154.4,86.1z M159.6,44c0-3.6,2.2-7.6,7.2-7.6c4.6,0,6.3,3.6,6.3,7.1c0,0.8-0.1,1.4-0.1,1.7h-9.2
		c0.1,1.8,1.9,2.7,4,2.7c1.5,0,2.7-0.2,3.9-0.6l0.6,3c-1.5,0.6-3.2,0.9-5.1,0.9C162.4,51.3,159.6,48.5,159.6,44z M167.6,85.9h-4.4
		V71.6h4.4V85.9z M165.4,69.9c-1.4,0-2.3-1-2.3-2.2c0-1.3,0.9-2.2,2.3-2.2s2.3,1,2.4,2.2C167.8,68.9,166.8,69.9,165.4,69.9z
		 M184.6,75.9v7.9c0,2.7-0.6,5-2.2,6.4c-1.6,1.3-3.7,1.7-5.8,1.7c-1.9,0-3.8-0.4-5.1-1.1l0.9-3.3c0.9,0.5,2.5,1.1,4.1,1.1
		c2.1,0,3.7-1.1,3.7-3.7v-0.9h-0.1c-0.8,1.2-2.2,1.9-3.8,1.9c-3.5,0-6-2.8-6-6.9c0-4.6,3-7.5,6.5-7.5c1.9,0,3.2,0.8,3.9,2h0.1
		l0.1-1.7h3.8C184.7,72.5,184.6,73.7,184.6,75.9z M182.6,40c-1.2,0-1.9,0.8-2.2,1.7c-0.1,0.3-0.2,0.7-0.2,1.1V51h-4.4v-9.7
		c0-1.8-0.1-3.3-0.1-4.5h3.8l0.2,1.9h0.1c0.6-0.9,2-2.3,4.4-2.3c2.9,0,5.1,1.9,5.1,6.1V51h-4.4v-7.9C184.9,41.3,184.2,40,182.6,40z
		 M201.7,85.9h-4.4V78c0-1.8-0.6-3.1-2.2-3.1c-1.2,0-1.9,0.8-2.2,1.7c-0.1,0.3-0.2,0.7-0.2,1.1v8.2h-4.4v-9.7c0-1.8-0.1-3.3-0.1-4.5
		h3.8l0.2,1.9h0.1c0.6-0.9,2-2.3,4.4-2.3c2.9,0,5.1,1.9,5.1,6.1V85.9z M196.6,51.3c-1.9,0-3.5-0.4-4.6-1l0.8-3.2
		c0.8,0.5,2.5,1.1,3.8,1.1c1.3,0,1.9-0.5,1.9-1.2s-0.4-1.1-2.1-1.6c-2.9-1-4.1-2.6-4-4.3c0-2.6,2.3-4.7,5.8-4.7c1.7,0,3.1,0.4,4,0.8
		l-0.8,3.1c-0.6-0.3-1.9-0.8-3.1-0.8c-1.1,0-1.7,0.4-1.7,1.2c0,0.7,0.6,1,2.3,1.6c2.7,0.9,3.8,2.3,3.9,4.4
		C202.8,49.3,200.7,51.3,196.6,51.3z M218,45.3h-9.2c0.1,1.8,1.9,2.7,4,2.7c1.5,0,2.7-0.2,3.9-0.6l0.6,3c-1.5,0.6-3.2,0.9-5.1,0.9
		c-4.8,0-7.6-2.8-7.6-7.2c0-3.6,2.2-7.6,7.2-7.6c4.6,0,6.3,3.6,6.3,7.1C218.1,44.3,218.1,45,218,45.3z M234.3,51h-4.4v-7.9
		c0-1.8-0.6-3.1-2.2-3.1c-1.2,0-1.9,0.8-2.2,1.7c-0.1,0.3-0.2,0.7-0.2,1.1V51h-4.4v-9.7c0-1.8-0.1-3.3-0.1-4.5h3.8l0.2,1.9h0.1
		c0.6-0.9,2-2.3,4.4-2.3c2.9,0,5.1,1.9,5.1,6.1V51z"/>
	<path class="st0" d="M121.6,69.5c-1,0-1.6,0.1-2,0.2v12.8c0.4,0.1,1,0.1,1.5,0.1c4,0,6.6-2.2,6.6-6.9
		C127.8,71.7,125.4,69.5,121.6,69.5z"/>
	<path class="st0" d="M166.5,39.4c-1.9,0-2.6,1.7-2.7,2.9h5.2C169,41.2,168.6,39.4,166.5,39.4z"/>
</g>
<path class="st1" d="M47.5,175.5c-0.3,0-0.7,0-1,0c-10-7-20-14-30-21c0-14.7,0-29.4,0-44.1c0-1.3-1-3.6,2-2.9
	c9.6,7,19.3,13.9,28.9,20.9C47.4,144.1,47.5,159.8,47.5,175.5z"/>
<path class="st2" d="M47.5,175.5c0-15.7-0.1-31.4-0.1-47.1c9.7-7,19.4-13.9,29.1-20.9c0.3,1,1,2,1,3c0.1,14.7,0,29.3,0,44
	c-9.7,7-19.3,14-29,21C48.2,175.5,47.8,175.5,47.5,175.5z"/>
</svg>
